<?xml version="1.0" standalone="no"?>
<!DOCTYPE svg PUBLIC "-//W3C//DTD SVG 20010904//EN"
 "http://www.w3.org/TR/2001/REC-SVG-20010904/DTD/svg10.dtd">
<svg version="1.0" xmlns="http://www.w3.org/2000/svg"
 width="1000.000000pt" height="1000.000000pt" viewBox="0 0 1000.000000 1000.000000"
 preserveAspectRatio="xMidYMid meet">
<metadata>
Created by potrace 1.14, written by Peter Selinger 2001-2017
</metadata>
<g transform="translate(0.000000,1000.000000) scale(0.100000,-0.100000)"
fill="#000000" stroke="none">
<path d="M4697 7334 c-1 -1 -49 -4 -107 -7 -58 -4 -114 -8 -125 -11 -11 -2
-42 -7 -69 -10 -27 -4 -52 -9 -55 -11 -3 -1 -22 -6 -41 -9 -19 -3 -89 -21
-155 -39 -431 -121 -813 -363 -1124 -712 -202 -227 -398 -578 -473 -850 -20
-71 -65 -249 -67 -263 -5 -42 -14 -102 -18 -122 -3 -14 -7 -135 -9 -270 -3
-234 0 -274 31 -465 36 -226 180 -599 296 -773 16 -24 29 -45 29 -48 0 -7 68
-102 138 -194 84 -109 294 -318 398 -397 352 -267 745 -428 1169 -481 77 -9
460 -9 545 0 246 27 542 119 787 244 104 53 330 193 366 228 7 6 39 34 72 61
284 236 524 565 669 918 72 175 130 400 155 607 11 86 15 367 6 450 -10 98
-16 147 -21 180 -117 730 -569 1360 -1225 1708 -260 138 -574 231 -862 258
-54 5 -306 11 -310 8z m293 -69 c203 -18 350 -50 560 -122 341 -117 698 -361
955 -654 267 -302 482 -770 530 -1148 4 -30 9 -63 11 -75 5 -25 17 -221 17
-291 1 -60 -11 -240 -18 -275 -3 -14 -8 -47 -11 -75 -4 -27 -21 -109 -40 -182
-160 -631 -585 -1168 -1164 -1469 -198 -103 -440 -186 -637 -219 -18 -3 -46
-7 -61 -10 -26 -4 -69 -9 -187 -21 -99 -9 -339 -3 -435 11 -19 3 -64 10 -100
15 -388 57 -832 268 -1134 539 -120 109 -283 293 -368 416 -219 318 -364 724
-394 1095 -6 84 -6 333 1 395 11 103 16 145 20 166 7 31 12 64 19 113 4 21 8
41 11 45 2 4 6 18 9 32 17 92 88 291 148 416 118 247 263 450 466 650 242 240
533 421 853 531 80 28 159 53 175 56 16 3 63 13 104 22 41 8 84 17 95 19 38 8
100 15 190 21 50 3 91 7 92 8 4 4 230 -3 293 -9z"/>
<path d="M4677 7154 c-1 -1 -36 -4 -77 -8 -41 -3 -84 -7 -95 -10 -11 -2 -42
-7 -70 -10 -68 -10 -233 -50 -325 -79 -612 -198 -1137 -707 -1353 -1312 -33
-92 -72 -223 -82 -277 -38 -190 -45 -261 -45 -433 0 -191 7 -270 35 -425 78
-428 292 -828 607 -1136 51 -51 109 -105 128 -121 50 -42 198 -153 204 -153 2
0 40 -22 83 -48 183 -112 427 -209 638 -253 33 -7 62 -13 65 -14 3 -1 28 -4
55 -8 28 -4 68 -10 90 -14 97 -15 524 -7 576 11 8 3 31 7 51 10 146 21 339 81
504 157 24 10 45 19 47 19 24 0 316 181 398 247 326 263 561 587 702 968 29
78 73 231 82 285 3 19 8 49 12 65 7 34 8 36 17 120 4 33 9 71 12 85 6 38 5
247 -1 320 -15 162 -19 190 -46 317 -46 222 -155 491 -268 668 -14 22 -30 47
-36 56 -155 246 -425 505 -690 664 -234 139 -534 251 -755 281 -25 3 -53 8
-64 10 -58 11 -389 26 -399 18z"/>
</g>
</svg>
